<svg width="216" height="70" viewBox="0 0 216 70" fill="none" xmlns="http://www.w3.org/2000/svg">
<g clip-path="url(#clip0_5179_594)">
<path d="M50.941 5.55981e-07C50.1829 0.000155924 49.4322 0.149698 48.7319 0.440065C48.0316 0.730432 47.3953 1.15595 46.8595 1.69231C46.3236 2.22867 45.8986 2.86537 45.6087 3.56605C45.3189 4.26672 45.1699 5.01764 45.1702 5.77592V22.4086V36.5771C45.1702 39.7305 42.8122 42.0891 39.6596 42.0891C36.5069 42.0891 34.1489 39.7305 34.1489 36.5771V22.4086C34.1486 20.8779 33.5405 19.4098 32.4584 18.3274C31.3762 17.245 29.9086 16.6368 28.3782 16.6364C26.8477 16.6368 25.3801 17.245 24.298 18.3274C23.2158 19.4098 22.6077 20.8779 22.6074 22.4086V36.5771C22.6074 45.9275 30.3115 53.6373 39.6596 53.6373C49.0076 53.6373 56.7154 45.9275 56.7154 36.5771V22.4086V5.77592C56.7158 5.01732 56.5666 4.26609 56.2766 3.56518C55.9865 2.86426 55.5611 2.22738 55.0249 1.69097C54.4886 1.15457 53.8519 0.729139 53.1512 0.438991C52.4504 0.148842 51.6994 -0.000332353 50.941 5.55981e-07Z" fill="#4E4E4E"/>
<path d="M17.0968 0C7.74868 0 0.0408712 7.70975 0.0408712 17.0602V31.2286V47.8614C0.0405399 48.62 0.189674 49.3712 0.479751 50.0721C0.769828 50.773 1.19516 51.4099 1.73144 51.9463C2.26771 52.4827 2.90442 52.9081 3.60516 53.1983C4.3059 53.4884 5.05694 53.6376 5.81535 53.6373C6.57344 53.6371 7.32408 53.4876 8.02439 53.1972C8.7247 52.9068 9.36097 52.4813 9.89685 51.945C10.4327 51.4086 10.8577 50.7719 11.1476 50.0712C11.4374 49.3706 11.5864 48.6196 11.5861 47.8614V31.2286V17.0602C11.5861 13.9068 13.9441 11.5481 17.0968 11.5481C20.2494 11.5481 22.6074 13.9068 22.6074 17.0602V31.2286C22.6077 32.7594 23.2158 34.2274 24.298 35.3099C25.3801 36.3923 26.8477 37.0005 28.3782 37.0008C29.9086 37.0005 31.3762 36.3923 32.4584 35.3099C33.5405 34.2274 34.1486 32.7594 34.1489 31.2286V17.0602C34.1489 7.70975 26.4448 0 17.0968 0Z" fill="#4E4E4E"/>
<path d="M5.77075 57.1199C5.01265 57.12 4.26202 57.2696 3.56171 57.5599C2.86139 57.8503 2.22512 58.2758 1.68924 58.8122C1.15335 59.3485 0.728361 59.9852 0.438517 60.6859C0.148673 61.3866 -0.000340703 62.1375 -7.0704e-06 62.8958C0.000308126 64.4266 0.608399 65.8946 1.69056 66.977C2.77272 68.0595 4.24035 68.6677 5.77075 68.668H30.8343C31.5924 68.6683 32.3432 68.5193 33.0437 68.2294C33.7442 67.9394 34.3807 67.5143 34.9169 66.9783C35.4532 66.4423 35.8786 65.8059 36.1689 65.1054C36.4592 64.4049 36.6087 63.6541 36.6088 62.8958C36.6092 62.1372 36.46 61.386 36.1699 60.685C35.8799 59.9841 35.4545 59.3473 34.9183 58.8108C34.382 58.2744 33.7453 57.849 33.0445 57.5589C32.3438 57.2687 31.5928 57.1195 30.8343 57.1199H5.77075Z" fill="#4E4E4E"/>
<path d="M51.5096 64.2265C51.5096 64.9847 51.3603 65.7354 51.0702 66.4359C50.7802 67.1364 50.355 67.7728 49.8191 68.3089C49.2831 68.845 48.6468 69.2703 47.9465 69.5604C47.2462 69.8506 46.4956 69.9999 45.7377 69.9999C44.9797 69.9999 44.2291 69.8506 43.5288 69.5604C42.8286 69.2703 42.1923 68.845 41.6563 68.3089C41.1203 67.7728 40.6952 67.1364 40.4051 66.4359C40.115 65.7354 39.9657 64.9847 39.9657 64.2265C39.9657 62.6953 40.5738 61.2268 41.6563 60.1441C42.7387 59.0614 44.2069 58.4531 45.7377 58.4531C47.2685 58.4531 48.7366 59.0614 49.819 60.1441C50.9015 61.2268 51.5096 62.6953 51.5096 64.2265Z" fill="#4E4E4E"/>
<path d="M62.383 67.8213L67.6514 42.9815H71.1186L70.6233 46.9901H70.7359C71.2612 46.1643 71.8616 45.4137 72.5371 44.738C73.2125 44.0624 73.978 43.522 74.8335 43.1166C75.6891 42.7112 76.6272 42.5085 77.6479 42.5085C78.7436 42.5085 79.6967 42.7187 80.5072 43.1391C81.3328 43.5595 81.9707 44.1901 82.421 45.0308C82.8863 45.8565 83.1189 46.885 83.1189 48.1161C83.1189 48.7617 83.0589 49.4673 82.9388 50.233C82.8187 50.9836 82.6836 51.7193 82.5335 52.44L79.2464 67.8213H74.9686L78.2107 52.5301C78.3608 51.8394 78.4884 51.1788 78.5935 50.5483C78.6986 49.9177 78.7511 49.3547 78.7511 48.8593C78.7511 48.0035 78.5334 47.3579 78.0982 46.9225C77.6779 46.4721 77.0475 46.2469 76.2069 46.2469C75.2313 46.2469 74.2932 46.6072 73.3926 47.3279C72.507 48.0485 71.704 49.122 70.9836 50.5483C70.2631 51.9595 69.6777 53.7086 69.2274 55.7955L66.6833 67.8213H62.383Z" fill="#4E4E4E"/>
<path d="M85.5055 67.8213L90.7739 43.0266H94.9391L89.6932 67.8213H85.5055ZM93.971 38.9954C93.3255 38.9954 92.8077 38.8228 92.4174 38.4775C92.0272 38.1322 91.8321 37.6217 91.8321 36.9461C91.8321 36.3756 91.9371 35.8426 92.1473 35.3472C92.3574 34.8517 92.6726 34.4539 93.0929 34.1536C93.5282 33.8383 94.061 33.6807 94.6914 33.6807C95.3518 33.6807 95.8622 33.8458 96.2224 34.1761C96.5977 34.4914 96.7853 34.9793 96.7853 35.6399C96.7853 36.6008 96.5226 37.404 95.9973 38.0496C95.4869 38.6802 94.8115 38.9954 93.971 38.9954Z" fill="#4E4E4E"/>
<path d="M102.999 68.2716C101.829 68.2716 100.8 67.9788 99.9148 67.3933C99.0442 66.8078 98.3688 65.937 97.8885 64.7809C97.4082 63.6099 97.168 62.1761 97.168 60.4796C97.168 58.9032 97.3256 57.2817 97.6408 55.6152C97.956 53.9487 98.4138 52.3423 99.0142 50.7959C99.6146 49.2345 100.358 47.8382 101.243 46.6071C102.144 45.361 103.172 44.3776 104.328 43.657C105.483 42.9213 106.767 42.5535 108.178 42.5535C109.063 42.5535 109.844 42.7261 110.519 43.0714C111.21 43.4017 111.788 43.8671 112.253 44.4677C112.733 45.0532 113.101 45.7363 113.356 46.517H113.536L114.752 43.0264H118.129L112.883 67.8212H109.551L109.979 63.8801H109.844C109.243 64.7059 108.59 65.4565 107.885 66.1321C107.195 66.7927 106.444 67.3182 105.634 67.7086C104.838 68.0839 103.96 68.2716 102.999 68.2716ZM104.463 64.7359C105.513 64.7359 106.482 64.3305 107.367 63.5198C108.253 62.6941 109.026 61.6206 109.686 60.2994C110.347 58.9782 110.864 57.5594 111.24 56.0431C111.525 54.9021 111.727 53.8737 111.848 52.9578C111.983 52.027 112.05 51.1487 112.05 50.323C112.05 49.0468 111.75 48.0334 111.15 47.2827C110.564 46.517 109.746 46.1342 108.696 46.1342C107.84 46.1342 107.037 46.4269 106.286 47.0125C105.551 47.598 104.883 48.3862 104.283 49.3771C103.697 50.353 103.194 51.4565 102.774 52.6876C102.354 53.9037 102.031 55.1723 101.806 56.4935C101.581 57.7997 101.468 59.0608 101.468 60.2769C101.468 61.7632 101.723 62.8817 102.234 63.6324C102.759 64.3681 103.502 64.7359 104.463 64.7359Z" fill="#4E4E4E"/>
<path d="M124.703 68.2716C123.368 68.2716 122.182 68.144 121.146 67.8887C120.125 67.6335 119.255 67.3032 118.534 66.8978V62.9568C119.27 63.4522 120.163 63.8801 121.214 64.2405C122.279 64.6008 123.345 64.7809 124.411 64.7809C125.371 64.7809 126.189 64.6308 126.865 64.3305C127.555 64.0303 128.081 63.5949 128.441 63.0244C128.801 62.4539 128.981 61.7707 128.981 60.975C128.981 60.4045 128.884 59.894 128.688 59.4436C128.493 58.9932 128.148 58.5278 127.653 58.0474C127.157 57.567 126.482 57.0039 125.626 56.3584C124.726 55.6978 123.96 55.0447 123.33 54.3991C122.715 53.7385 122.249 53.0329 121.934 52.2822C121.619 51.5315 121.461 50.6833 121.461 49.7374C121.461 48.3262 121.776 47.0876 122.407 46.0216C123.052 44.9406 123.96 44.0924 125.131 43.4768C126.317 42.8613 127.728 42.5535 129.364 42.5535C130.7 42.5535 131.931 42.7186 133.056 43.0489C134.197 43.3642 135.195 43.7771 136.051 44.2875L134.475 47.553C133.784 47.1025 133.011 46.7347 132.156 46.4495C131.3 46.1642 130.392 46.0216 129.431 46.0216C128.306 46.0216 127.398 46.3143 126.707 46.8999C126.032 47.4854 125.694 48.2811 125.694 49.287C125.694 49.8125 125.784 50.2929 125.964 50.7283C126.159 51.1487 126.49 51.5841 126.955 52.0345C127.42 52.4699 128.058 52.9803 128.869 53.5659C129.769 54.2565 130.55 54.9246 131.21 55.5702C131.886 56.2157 132.403 56.9289 132.764 57.7096C133.124 58.4753 133.304 59.4136 133.304 60.5246C133.304 62.1311 132.959 63.5123 132.268 64.6683C131.578 65.8244 130.587 66.7177 129.296 67.3482C128.021 67.9638 126.49 68.2716 124.703 68.2716Z" fill="#4E4E4E"/>
<path d="M141.162 67.8213L147.331 38.7026H140.081L140.891 34.8967H159.714L158.903 38.7026H151.653L145.462 67.8213H141.162Z" fill="#4E4E4E"/>
<path d="M165.545 68.2718C163.909 68.2718 162.498 67.9415 161.312 67.2809C160.141 66.6053 159.233 65.6369 158.588 64.3758C157.957 63.0996 157.642 61.5607 157.642 59.7591C157.642 57.5371 157.92 55.3977 158.475 53.3408C159.031 51.284 159.826 49.4448 160.862 47.8234C161.912 46.2019 163.166 44.9258 164.622 43.9949C166.078 43.0491 167.706 42.5762 169.507 42.5762C171.489 42.5762 173.02 43.0716 174.1 44.0625C175.196 45.0384 175.744 46.4121 175.744 48.1837C175.744 49.4899 175.466 50.6834 174.911 51.7644C174.356 52.8454 173.53 53.7762 172.434 54.5569C171.339 55.3376 169.98 55.9382 168.359 56.3585C166.738 56.7789 164.847 56.9891 162.685 56.9891H162.078C162.003 57.3945 161.942 57.8149 161.897 58.2502C161.867 58.6706 161.852 59.091 161.852 59.5114C161.852 61.268 162.235 62.5967 163.001 63.4975C163.766 64.3983 164.907 64.8487 166.423 64.8487C167.458 64.8487 168.419 64.7136 169.305 64.4433C170.205 64.1581 171.196 63.7377 172.277 63.1822V66.6278C171.271 67.1683 170.228 67.5736 169.147 67.8439C168.081 68.1291 166.881 68.2718 165.545 68.2718ZM162.64 53.7912H163.046C164.892 53.7912 166.46 53.5811 167.751 53.1607C169.042 52.7403 170.025 52.1323 170.701 51.3365C171.391 50.5258 171.736 49.5574 171.736 48.4314C171.736 47.6657 171.519 47.0577 171.083 46.6073C170.648 46.1569 169.988 45.9317 169.102 45.9317C168.217 45.9317 167.354 46.262 166.513 46.9226C165.672 47.5681 164.914 48.4765 164.239 49.6475C163.564 50.8186 163.031 52.1998 162.64 53.7912Z" fill="#4E4E4E"/>
<path d="M186.033 68.2716C184.472 68.2716 183.121 67.9638 181.981 67.3482C180.84 66.7177 179.962 65.7794 179.346 64.5332C178.731 63.2871 178.423 61.7332 178.423 59.8715C178.423 58.2501 178.581 56.6211 178.896 54.9846C179.226 53.3331 179.707 51.7717 180.337 50.3004C180.982 48.8141 181.785 47.4929 182.746 46.3369C183.707 45.1658 184.817 44.2425 186.078 43.5669C187.354 42.8913 188.787 42.5535 190.378 42.5535C191.384 42.5535 192.337 42.6586 193.238 42.8688C194.138 43.079 194.964 43.3867 195.714 43.7921L194.273 47.1927C193.748 46.8924 193.148 46.6446 192.472 46.4495C191.812 46.2393 191.121 46.1342 190.401 46.1342C189.17 46.1342 188.074 46.5396 187.114 47.3503C186.168 48.161 185.365 49.2345 184.705 50.5707C184.044 51.9069 183.542 53.3632 183.196 54.9396C182.866 56.501 182.701 58.0399 182.701 59.5562C182.701 60.6823 182.859 61.6356 183.174 62.4163C183.489 63.182 183.954 63.76 184.57 64.1504C185.185 64.5407 185.928 64.7359 186.799 64.7359C187.639 64.7359 188.465 64.6008 189.275 64.3305C190.086 64.0453 190.904 63.685 191.729 63.2496V66.8303C190.979 67.2507 190.123 67.596 189.163 67.8662C188.202 68.1365 187.159 68.2716 186.033 68.2716Z" fill="#4E4E4E"/>
<path d="M195.422 67.8213L202.852 32.7798H207.017L205.125 41.4501C205.02 42.0056 204.885 42.5911 204.72 43.2066C204.57 43.8222 204.413 44.4378 204.247 45.0533C204.082 45.6539 203.917 46.2319 203.752 46.7874H203.91C204.42 46.0067 205.005 45.301 205.666 44.6705C206.326 44.0399 207.069 43.5369 207.895 43.1616C208.735 42.7712 209.666 42.5761 210.687 42.5761C211.797 42.5761 212.75 42.7938 213.546 43.2292C214.341 43.6646 214.949 44.3026 215.37 45.1434C215.79 45.9841 216 47.0126 216 48.2287C216 48.8442 215.94 49.5348 215.82 50.3005C215.715 51.0512 215.587 51.7944 215.437 52.53L212.172 67.8213H207.985L211.204 52.6426C211.354 51.937 211.474 51.2689 211.565 50.6383C211.67 50.0078 211.722 49.4297 211.722 48.9043C211.722 48.0335 211.512 47.3654 211.092 46.9C210.671 46.4345 210.018 46.2018 209.133 46.2018C208.187 46.2018 207.264 46.5396 206.364 47.2152C205.478 47.8909 204.675 48.9193 203.955 50.3005C203.234 51.6818 202.649 53.4458 202.198 55.5928L199.587 67.8213H195.422Z" fill="#4E4E4E"/>
</g>
<defs>
<clipPath id="clip0_5179_594">
<rect width="216" height="70" fill="white"/>
</clipPath>
</defs>
</svg>
